<svg id="svg" version="1.1" xmlns="http://www.w3.org/2000/svg" xmlns:xlink="http://www.w3.org/1999/xlink" width="400" height="400" viewBox="0, 0, 400,400"><g id="svgg"><path id="path0" d="M17.200 217.000 L 17.200 340.800 47.000 340.800 L 76.800 340.800 76.800 329.000 L 76.800 317.200 59.800 317.200 L 42.800 317.200 42.800 217.000 L 42.800 116.800 59.800 116.800 L 76.800 116.800 76.800 105.000 L 76.800 93.200 47.000 93.200 L 17.200 93.200 17.200 217.000 M323.200 105.000 L 323.200 116.800 340.200 116.800 L 357.200 116.800 357.200 217.000 L 357.200 317.200 340.200 317.200 L 323.200 317.200 323.200 329.000 L 323.200 340.800 353.000 340.800 L 382.800 340.800 382.800 217.000 L 382.800 93.200 353.000 93.200 L 323.200 93.200 323.200 105.000 M155.200 205.000 L 155.200 292.800 209.200 292.800 L 263.200 292.800 263.200 281.000 L 263.200 269.200 223.000 269.200 L 182.800 269.200 182.800 193.200 L 182.800 117.200 169.000 117.200 L 155.200 117.200 155.200 205.000 " stroke="none" fill="#04acb4" fill-rule="evenodd"></path><path id="path1" d="" stroke="none" fill="#08acb4" fill-rule="evenodd"></path><path id="path2" d="" stroke="none" fill="#08acb4" fill-rule="evenodd"></path><path id="path3" d="" stroke="none" fill="#08acb4" fill-rule="evenodd"></path><path id="path4" d="" stroke="none" fill="#08acb4" fill-rule="evenodd"></path></g></svg>